# xmcd CD database file
#
# Track frame offsets:
#	150
#	15125
#	31127
#	53564
#	72523
#	85555
#	99019
#	115109
#	126443
#	134526
#	145712
#	163721
#	175541
#	195751
#	207942
#	221610
#	237165
#	254049
#
# Disc length: 3559 seconds
#
# Revision: 1
# Processed by: cddbd v1.5.2PL0 Copyright (c) Steve Scherf et al.
# Submitted via: CDex 1.70beta2
#
DISCID=e70de512
DTITLE=Pacifik - Dal, dal, dal
DYEAR=2004
DGENRE=Country
TTITLE0=Dabluv vlak
TTITLE1=Kovbojuv narek
TTITLE2=Jazzova pisen
TTITLE3=Dzinova laska
TTITLE4=Santa monica
TTITLE5=Kruta valka
TTITLE6=Mississippi blues
TTITLE7=Zebrinak
TTITLE8=Jezis je sam
TTITLE9=Dal, dal, dal
TTITLE10=To ua davno nejsem ja
TTITLE11=Nas Bozi chram
TTITLE12=Maly Velky muz
TTITLE13=Ptaci kral
TTITLE14=Heja hou
TTITLE15=Tulacky blues
TTITLE16=Balada o Janu krali
TTITLE17=Velerybarska vyprava
EXTD=YEAR: 2004
EXTT0=
EXTT1=
EXTT2=
EXTT3=
EXTT4=
EXTT5=
EXTT6=
EXTT7=
EXTT8=
EXTT9=
EXTT10=
EXTT11=
EXTT12=
EXTT13=
EXTT14=
EXTT15=
EXTT16=
EXTT17=
PLAYORDER=
